<?xml version="1.0" encoding="UTF-8" standalone="no"?>
<svg
   xmlns:dc="http://purl.org/dc/elements/1.1/"
   xmlns:cc="http://creativecommons.org/ns#"
   xmlns:rdf="http://www.w3.org/1999/02/22-rdf-syntax-ns#"
   xmlns:svg="http://www.w3.org/2000/svg"
   xmlns="http://www.w3.org/2000/svg"
   xmlns:sodipodi="http://sodipodi.sourceforge.net/DTD/sodipodi-0.dtd"
   xmlns:inkscape="http://www.inkscape.org/namespaces/inkscape"
   version="1.1"
   width="141.83mm"
   height="145.42mm"
   viewBox="0 0 14183 14542"
   preserveAspectRatio="xMidYMid"
   fill-rule="evenodd"
   clip-path="url(#presentation_clip_path)"
   stroke-width="28.222"
   stroke-linejoin="round"
   xml:space="preserve"
   id="svg1255"
   sodipodi:docname="2021-02-24 – nested pentagons.svg"
   inkscape:version="1.0.1 (0767f8302a, 2020-10-17)"><metadata
   id="metadata1259"><rdf:RDF><cc:Work
       rdf:about=""><dc:format>image/svg+xml</dc:format><dc:type
         rdf:resource="http://purl.org/dc/dcmitype/StillImage" /><dc:title></dc:title></cc:Work></rdf:RDF></metadata><sodipodi:namedview
   pagecolor="#ffffff"
   bordercolor="#666666"
   borderopacity="1"
   objecttolerance="10"
   gridtolerance="10"
   guidetolerance="10"
   inkscape:pageopacity="0"
   inkscape:pageshadow="2"
   inkscape:window-width="1585"
   inkscape:window-height="1059"
   id="namedview1257"
   showgrid="false"
   inkscape:zoom="1.1305649"
   inkscape:cx="387.80068"
   inkscape:cy="292.37772"
   inkscape:window-x="1089"
   inkscape:window-y="247"
   inkscape:window-maximized="0"
   inkscape:current-layer="svg1255" />
 <defs
   class="ClipPathGroup"
   id="defs1076">
  <clipPath
   id="presentation_clip_path"
   clipPathUnits="userSpaceOnUse">
   <rect
   x="0"
   y="0"
   width="14183"
   height="14542"
   id="rect1073" />
  </clipPath>
 </defs>
 <defs
   class="TextShapeIndex"
   id="defs1078">
  
 </defs>
 <defs
   class="EmbeddedBulletChars"
   id="defs1107">
  <g
   id="bullet-char-template57356"
   transform="scale(0.00048828125,-0.00048828125)">
   <path
   d="M 580,1141 L 1163,571 580,0 -4,571 580,1141 Z"
   id="path1080" />
  </g>
  <g
   id="bullet-char-template57354"
   transform="scale(0.00048828125,-0.00048828125)">
   <path
   d="M 8,1128 L 1137,1128 1137,0 8,0 8,1128 Z"
   id="path1083" />
  </g>
  <g
   id="bullet-char-template10146"
   transform="scale(0.00048828125,-0.00048828125)">
   <path
   d="M 174,0 L 602,739 174,1481 1456,739 174,0 Z M 1358,739 L 309,1346 659,739 1358,739 Z"
   id="path1086" />
  </g>
  <g
   id="bullet-char-template10132"
   transform="scale(0.00048828125,-0.00048828125)">
   <path
   d="M 2015,739 L 1276,0 717,0 1260,543 174,543 174,936 1260,936 717,1481 1274,1481 2015,739 Z"
   id="path1089" />
  </g>
  <g
   id="bullet-char-template10007"
   transform="scale(0.00048828125,-0.00048828125)">
   <path
   d="M 0,-2 C -7,14 -16,27 -25,37 L 356,567 C 262,823 215,952 215,954 215,979 228,992 255,992 264,992 276,990 289,987 310,991 331,999 354,1012 L 381,999 492,748 772,1049 836,1024 860,1049 C 881,1039 901,1025 922,1006 886,937 835,863 770,784 769,783 710,716 594,584 L 774,223 C 774,196 753,168 711,139 L 727,119 C 717,90 699,76 672,76 641,76 570,178 457,381 L 164,-76 C 142,-110 111,-127 72,-127 30,-127 9,-110 8,-76 1,-67 -2,-52 -2,-32 -2,-23 -1,-13 0,-2 Z"
   id="path1092" />
  </g>
  <g
   id="bullet-char-template10004"
   transform="scale(0.00048828125,-0.00048828125)">
   <path
   d="M 285,-33 C 182,-33 111,30 74,156 52,228 41,333 41,471 41,549 55,616 82,672 116,743 169,778 240,778 293,778 328,747 346,684 L 369,508 C 377,444 397,411 428,410 L 1163,1116 C 1174,1127 1196,1133 1229,1133 1271,1133 1292,1118 1292,1087 L 1292,965 C 1292,929 1282,901 1262,881 L 442,47 C 390,-6 338,-33 285,-33 Z"
   id="path1095" />
  </g>
  <g
   id="bullet-char-template9679"
   transform="scale(0.00048828125,-0.00048828125)">
   <path
   d="M 813,0 C 632,0 489,54 383,161 276,268 223,411 223,592 223,773 276,916 383,1023 489,1130 632,1184 813,1184 992,1184 1136,1130 1245,1023 1353,916 1407,772 1407,592 1407,412 1353,268 1245,161 1136,54 992,0 813,0 Z"
   id="path1098" />
  </g>
  <g
   id="bullet-char-template8226"
   transform="scale(0.00048828125,-0.00048828125)">
   <path
   d="M 346,457 C 273,457 209,483 155,535 101,586 74,649 74,723 74,796 101,859 155,911 209,963 273,989 346,989 419,989 480,963 531,910 582,859 608,796 608,723 608,648 583,586 532,535 482,483 420,457 346,457 Z"
   id="path1101" />
  </g>
  <g
   id="bullet-char-template8211"
   transform="scale(0.00048828125,-0.00048828125)">
   <path
   d="M -4,459 L 1135,459 1135,606 -4,606 -4,459 Z"
   id="path1104" />
  </g>
 </defs>
 <defs
   class="TextEmbeddedBitmaps"
   id="defs1109" />
 <g
   id="g1114">
  <g
   id="id2"
   class="Master_Slide">
   <g
   id="bg-id2"
   class="Background" />
   <g
   id="bo-id2"
   class="BackgroundObjects" />
  </g>
 </g>
 <g
   class="SlideGroup"
   id="g1253"
   transform="translate(8.9216302,-17.361064)">
  <g
   id="g1251">
   <g
   id="id1"
   class="Slide"
   clip-path="url(#presentation_clip_path)">
    <g
   class="Page"
   id="g1248">
     <g
   class="Group"
   id="g1246">
      <g
   class="com.sun.star.drawing.EllipseShape"
   id="g1121">
       <g
   id="id3">
        <path
   fill="#ffffff"
   stroke="none"
   d="m 7092,14322 c -1299,0 -2403,-296 -3528,-945 C 2439,12727 1631,11919 981,10794 332,9669 36,8565 36,7266 36,5967 332,4863 981,3738 1631,2613 2439,1805 3564,1155 4689,506 5793,210 7092,210 c 1299,0 2403,296 3528,945 1125,650 1933,1458 2583,2583 649,1125 945,2229 945,3528 0,1299 -296,2403 -945,3528 -650,1125 -1458,1933 -2583,2583 -1125,649 -2229,945 -3528,945 z"
   id="path1116" />
        <path
   fill="none"
   stroke="#c0c0c0"
   stroke-width="71"
   d="m 7092,14322 c -1299,0 -2403,-296 -3528,-945 C 2439,12727 1631,11919 981,10794 332,9669 36,8565 36,7266 36,5967 332,4863 981,3738 1631,2613 2439,1805 3564,1155 4689,506 5793,210 7092,210 c 1299,0 2403,296 3528,945 1125,650 1933,1458 2583,2583 649,1125 945,2229 945,3528 0,1299 -296,2403 -945,3528 -650,1125 -1458,1933 -2583,2583 -1125,649 -2229,945 -3528,945 z"
   id="path1118" />
       </g>
      </g>
      <g
   class="com.sun.star.drawing.EllipseShape"
   id="g1128">
       <g
   id="id4">
        <path
   fill="#ffffff"
   stroke="none"
   d="m 7092,7266 -1,-3176 c 585,0 1082,133 1588,425 102,59 184,113 279,181 z"
   id="path1123" />
        <path
   fill="none"
   stroke="#c0c0c0"
   stroke-width="71"
   d="m 7092,7266 -1,-3176 c 585,0 1082,133 1588,425 102,59 184,113 279,181 z"
   id="path1125" />
       </g>
      </g>
      <g
   class="com.sun.star.drawing.TextShape"
   id="g1139">
       <g
   id="id5">
        <text
   class="TextShape"
   id="text1136"><tspan
     class="TextParagraph"
     font-family="'Nimbus Sans L', sans-serif"
     font-size="776px"
     font-weight="400"
     id="tspan1134"><tspan
       class="TextPosition"
       x="7220"
       y="5509"
       id="tspan1132"><tspan
         fill="#c0c0c0"
         stroke="none"
         id="tspan1130">36°</tspan></tspan></tspan></text>
       </g>
      </g>
      <g
   class="com.sun.star.drawing.PolyLineShape"
   id="g1144">
       <g
   id="id6">
        <path
   fill="none"
   stroke="#c0c0c0"
   stroke-width="71"
   d="M 7093,7267 V 212 7267 L 11240,1559 7093,7267 13803,5087 7093,7267 13803,9448 7093,7267 11240,12975 7093,7267 V 14323 7267 L 2946,12975 7093,7267 383,9448 7093,7267 383,5087 7093,7267 2946,1559 Z"
   id="path1141" />
       </g>
      </g>
      <g
   class="com.sun.star.drawing.EllipseShape"
   id="g1151">
       <g
   id="id7">
        <path
   fill="#ffffff"
   stroke="none"
   d="m 7094,7445 c -33,0 -60,-7 -88,-24 -29,-16 -49,-36 -65,-64 -17,-29 -24,-56 -24,-89 0,-33 7,-60 24,-88 16,-29 36,-49 65,-65 28,-17 55,-24 88,-24 33,0 60,7 89,24 28,16 48,36 64,65 17,28 24,55 24,88 0,33 -7,60 -24,89 -16,28 -36,48 -64,64 -29,17 -56,24 -89,24 z"
   id="path1146" />
        <path
   fill="none"
   stroke="#c0c0c0"
   stroke-width="71"
   d="m 7094,7445 c -33,0 -60,-7 -88,-24 -29,-16 -49,-36 -65,-64 -17,-29 -24,-56 -24,-89 0,-33 7,-60 24,-88 16,-29 36,-49 65,-65 28,-17 55,-24 88,-24 33,0 60,7 89,24 28,16 48,36 64,65 17,28 24,55 24,88 0,33 -7,60 -24,89 -16,28 -36,48 -64,64 -29,17 -56,24 -89,24 z"
   id="path1148" />
       </g>
      </g>
      <g
   class="com.sun.star.drawing.EllipseShape"
   id="g1158">
       <g
   id="id8">
        <path
   fill="#ffffff"
   stroke="none"
   d="m 7092,210 1686,548 c -40,124 -85,225 -151,339 -163,282 -366,485 -648,648 -283,164 -561,238 -887,238 -326,0 -604,-74 -886,-238 -283,-163 -486,-366 -649,-648 -66,-114 -111,-215 -151,-339 z"
   id="path1153" />
        <path
   fill="none"
   stroke="#000000"
   stroke-width="71"
   d="m 7092,210 1686,548 c -40,124 -85,225 -151,339 -163,282 -366,485 -648,648 -283,164 -561,238 -887,238 -326,0 -604,-74 -886,-238 -283,-163 -486,-366 -649,-648 -66,-114 -111,-215 -151,-339 z"
   id="path1155" />
       </g>
      </g>
      <g
   class="com.sun.star.drawing.TextShape"
   id="g1169">
       <g
   id="id9">
        <text
   class="TextShape"
   id="text1166"><tspan
     class="TextParagraph"
     font-family="'Nimbus Sans L', sans-serif"
     font-size="776px"
     font-weight="400"
     id="tspan1164"><tspan
       class="TextPosition"
       x="6205"
       y="1547"
       id="tspan1162"><tspan
         fill="#000000"
         stroke="none"
         id="tspan1160">144°</tspan></tspan></tspan></text>
       </g>
      </g>
      <g
   class="com.sun.star.drawing.PolyLineShape"
   id="g1174">
       <g
   id="id10">
        <path
   fill="none"
   stroke="#000000"
   stroke-width="141"
   d="m 7095,215 4145,1348 2563,3528 V 9451 L 11240,12979 7094,14326 2948,12978 385,9451 383,5091 2947,1563 7091,215"
   id="path1171" />
       </g>
      </g>
      <g
   class="com.sun.star.drawing.EllipseShape"
   id="g1181">
       <g
   id="id11">
        <path
   fill="#ffffff"
   stroke="none"
   d="m 6935,136 c 15,-29 34,-51 61,-69 27,-18 54,-27 87,-29 32,-1 61,4 90,19 29,14 50,33 68,61 18,27 27,54 29,87 2,32 -4,60 -18,89 -15,29 -34,51 -61,69 -27,18 -54,27 -87,29 -32,2 -61,-4 -90,-19 -29,-14 -50,-33 -68,-60 -18,-28 -27,-55 -29,-87 -2,-33 4,-61 18,-90 z"
   id="path1176" />
        <path
   fill="none"
   stroke="#000000"
   stroke-width="71"
   d="m 6935,136 c 15,-29 34,-51 61,-69 27,-18 54,-27 87,-29 32,-1 61,4 90,19 29,14 50,33 68,61 18,27 27,54 29,87 2,32 -4,60 -18,89 -15,29 -34,51 -61,69 -27,18 -54,27 -87,29 -32,2 -61,-4 -90,-19 -29,-14 -50,-33 -68,-60 -18,-28 -27,-55 -29,-87 -2,-33 4,-61 18,-90 z"
   id="path1178" />
       </g>
      </g>
      <g
   class="com.sun.star.drawing.EllipseShape"
   id="g1188">
       <g
   id="id12">
        <path
   fill="#ffffff"
   stroke="none"
   d="m 11073,1509 c 10,-31 25,-55 50,-77 24,-22 49,-35 81,-42 32,-6 61,-5 92,5 31,10 55,26 77,50 21,24 34,50 41,82 7,32 5,60 -5,91 -10,31 -25,55 -50,77 -24,22 -49,35 -81,42 -32,7 -61,5 -92,-5 -31,-10 -55,-26 -77,-50 -21,-24 -34,-50 -41,-82 -7,-32 -5,-60 5,-91 z"
   id="path1183" />
        <path
   fill="none"
   stroke="#000000"
   stroke-width="71"
   d="m 11073,1509 c 10,-31 25,-55 50,-77 24,-22 49,-35 81,-42 32,-6 61,-5 92,5 31,10 55,26 77,50 21,24 34,50 41,82 7,32 5,60 -5,91 -10,31 -25,55 -50,77 -24,22 -49,35 -81,42 -32,7 -61,5 -92,-5 -31,-10 -55,-26 -77,-50 -21,-24 -34,-50 -41,-82 -7,-32 -5,-60 5,-91 z"
   id="path1185" />
       </g>
      </g>
      <g
   class="com.sun.star.drawing.EllipseShape"
   id="g1195">
       <g
   id="id13">
        <path
   fill="#ffffff"
   stroke="none"
   d="m 13701,4947 c 26,-20 53,-30 85,-33 33,-4 61,1 91,14 30,13 52,31 71,58 19,26 29,53 33,85 3,33 -1,61 -15,91 -13,30 -31,52 -57,71 -27,19 -53,29 -86,33 -32,3 -60,-1 -90,-14 -30,-14 -52,-32 -71,-58 -20,-26 -30,-53 -33,-86 -4,-32 1,-60 14,-90 13,-30 31,-52 58,-71 z"
   id="path1190" />
        <path
   fill="none"
   stroke="#000000"
   stroke-width="71"
   d="m 13701,4947 c 26,-20 53,-30 85,-33 33,-4 61,1 91,14 30,13 52,31 71,58 19,26 29,53 33,85 3,33 -1,61 -15,91 -13,30 -31,52 -57,71 -27,19 -53,29 -86,33 -32,3 -60,-1 -90,-14 -30,-14 -52,-32 -71,-58 -20,-26 -30,-53 -33,-86 -4,-32 1,-60 14,-90 13,-30 31,-52 58,-71 z"
   id="path1192" />
       </g>
      </g>
      <g
   class="com.sun.star.drawing.EllipseShape"
   id="g1202">
       <g
   id="id14">
        <path
   fill="#ffffff"
   stroke="none"
   d="m 13804,9273 c 33,0 60,7 89,24 28,16 48,36 64,65 17,28 24,55 24,88 0,33 -7,60 -24,89 -16,28 -36,48 -64,64 -29,17 -56,24 -89,24 -33,0 -60,-7 -88,-24 -29,-16 -49,-36 -65,-64 -17,-29 -24,-56 -24,-89 0,-33 7,-60 24,-88 16,-29 36,-49 65,-65 28,-17 55,-24 88,-24 z"
   id="path1197" />
        <path
   fill="none"
   stroke="#000000"
   stroke-width="71"
   d="m 13804,9273 c 33,0 60,7 89,24 28,16 48,36 64,65 17,28 24,55 24,88 0,33 -7,60 -24,89 -16,28 -36,48 -64,64 -29,17 -56,24 -89,24 -33,0 -60,-7 -88,-24 -29,-16 -49,-36 -65,-64 -17,-29 -24,-56 -24,-89 0,-33 7,-60 24,-88 16,-29 36,-49 65,-65 28,-17 55,-24 88,-24 z"
   id="path1199" />
       </g>
      </g>
      <g
   class="com.sun.star.drawing.EllipseShape"
   id="g1209">
       <g
   id="id15">
        <path
   fill="#ffffff"
   stroke="none"
   d="m 11346,12836 c 26,19 44,41 58,71 13,30 17,58 14,90 -4,33 -14,59 -33,86 -19,26 -41,44 -71,57 -30,14 -58,18 -91,15 -32,-4 -59,-14 -85,-33 -27,-19 -45,-41 -58,-71 -13,-30 -18,-58 -14,-91 3,-32 13,-59 33,-85 19,-27 41,-45 71,-58 30,-13 58,-18 90,-14 33,3 60,13 86,33 z"
   id="path1204" />
        <path
   fill="none"
   stroke="#000000"
   stroke-width="71"
   d="m 11346,12836 c 26,19 44,41 58,71 13,30 17,58 14,90 -4,33 -14,59 -33,86 -19,26 -41,44 -71,57 -30,14 -58,18 -91,15 -32,-4 -59,-14 -85,-33 -27,-19 -45,-41 -58,-71 -13,-30 -18,-58 -14,-91 3,-32 13,-59 33,-85 19,-27 41,-45 71,-58 30,-13 58,-18 90,-14 33,3 60,13 86,33 z"
   id="path1206" />
       </g>
      </g>
      <g
   class="com.sun.star.drawing.EllipseShape"
   id="g1216">
       <g
   id="id16">
        <path
   fill="#ffffff"
   stroke="none"
   d="m 7264,14272 c 10,31 12,60 5,92 -7,32 -20,57 -42,81 -22,25 -46,40 -77,50 -31,10 -59,12 -91,5 -32,-7 -58,-20 -82,-41 -24,-22 -40,-46 -50,-77 -10,-31 -11,-60 -4,-92 6,-32 19,-57 41,-81 22,-25 46,-40 77,-50 31,-10 60,-12 92,-5 31,7 57,20 81,41 24,22 40,46 50,77 z"
   id="path1211" />
        <path
   fill="none"
   stroke="#000000"
   stroke-width="71"
   d="m 7264,14272 c 10,31 12,60 5,92 -7,32 -20,57 -42,81 -22,25 -46,40 -77,50 -31,10 -59,12 -91,5 -32,-7 -58,-20 -82,-41 -24,-22 -40,-46 -50,-77 -10,-31 -11,-60 -4,-92 6,-32 19,-57 41,-81 22,-25 46,-40 77,-50 31,-10 60,-12 92,-5 31,7 57,20 81,41 24,22 40,46 50,77 z"
   id="path1213" />
       </g>
      </g>
      <g
   class="com.sun.star.drawing.EllipseShape"
   id="g1223">
       <g
   id="id17">
        <path
   fill="#ffffff"
   stroke="none"
   d="m 3117,13033 c -10,31 -25,55 -50,77 -24,22 -49,35 -81,42 -32,6 -61,5 -92,-5 -31,-10 -55,-26 -77,-50 -21,-24 -34,-50 -41,-82 -7,-32 -5,-60 5,-91 10,-31 25,-55 50,-77 24,-22 49,-35 81,-42 32,-7 61,-5 92,5 31,10 55,26 77,50 21,24 34,50 41,82 7,32 5,60 -5,91 z"
   id="path1218" />
        <path
   fill="none"
   stroke="#000000"
   stroke-width="71"
   d="m 3117,13033 c -10,31 -25,55 -50,77 -24,22 -49,35 -81,42 -32,6 -61,5 -92,-5 -31,-10 -55,-26 -77,-50 -21,-24 -34,-50 -41,-82 -7,-32 -5,-60 5,-91 10,-31 25,-55 50,-77 24,-22 49,-35 81,-42 32,-7 61,-5 92,5 31,10 55,26 77,50 21,24 34,50 41,82 7,32 5,60 -5,91 z"
   id="path1220" />
       </g>
      </g>
      <g
   class="com.sun.star.drawing.EllipseShape"
   id="g1230">
       <g
   id="id18">
        <path
   fill="#ffffff"
   stroke="none"
   d="m 489,9594 c -26,20 -53,30 -85,33 -33,4 -61,-1 -91,-14 -30,-13 -52,-31 -71,-58 -19,-26 -29,-53 -33,-85 -3,-33 1,-61 15,-91 13,-30 31,-52 57,-71 27,-19 53,-29 86,-33 32,-3 60,1 90,15 30,13 52,31 71,57 20,27 30,53 33,86 4,32 -1,60 -14,90 -13,30 -31,52 -58,71 z"
   id="path1225" />
        <path
   fill="none"
   stroke="#000000"
   stroke-width="71"
   d="m 489,9594 c -26,20 -53,30 -85,33 -33,4 -61,-1 -91,-14 -30,-13 -52,-31 -71,-58 -19,-26 -29,-53 -33,-85 -3,-33 1,-61 15,-91 13,-30 31,-52 57,-71 27,-19 53,-29 86,-33 32,-3 60,1 90,15 30,13 52,31 71,57 20,27 30,53 33,86 4,32 -1,60 -14,90 -13,30 -31,52 -58,71 z"
   id="path1227" />
       </g>
      </g>
      <g
   class="com.sun.star.drawing.EllipseShape"
   id="g1237">
       <g
   id="id19">
        <path
   fill="#ffffff"
   stroke="none"
   d="m 386,5268 c -33,0 -60,-7 -88,-24 -29,-16 -49,-36 -65,-64 -17,-29 -24,-56 -24,-89 0,-33 7,-60 24,-88 16,-29 36,-49 64,-65 29,-17 56,-24 89,-24 33,0 60,7 88,24 29,16 49,36 65,65 17,28 24,55 24,88 0,33 -7,60 -24,89 -16,28 -36,48 -64,64 -29,17 -56,24 -89,24 z"
   id="path1232" />
        <path
   fill="none"
   stroke="#000000"
   stroke-width="71"
   d="m 386,5268 c -33,0 -60,-7 -88,-24 -29,-16 -49,-36 -65,-64 -17,-29 -24,-56 -24,-89 0,-33 7,-60 24,-88 16,-29 36,-49 64,-65 29,-17 56,-24 89,-24 33,0 60,7 88,24 29,16 49,36 65,65 17,28 24,55 24,88 0,33 -7,60 -24,89 -16,28 -36,48 -64,64 -29,17 -56,24 -89,24 z"
   id="path1234" />
       </g>
      </g>
      <g
   class="com.sun.star.drawing.EllipseShape"
   id="g1244">
       <g
   id="id20">
        <path
   fill="#ffffff"
   stroke="none"
   d="m 2844,1706 c -26,-19 -44,-41 -58,-71 -13,-30 -17,-58 -14,-90 3,-33 14,-59 33,-86 19,-26 41,-44 71,-57 30,-14 58,-18 91,-15 32,4 59,14 85,33 27,19 45,42 58,71 13,30 18,58 14,91 -3,32 -14,59 -33,85 -19,27 -41,45 -71,58 -30,13 -58,18 -90,14 -33,-3 -60,-13 -86,-33 z"
   id="path1239" />
        <path
   fill="none"
   stroke="#000000"
   stroke-width="71"
   d="m 2844,1706 c -26,-19 -44,-41 -58,-71 -13,-30 -17,-58 -14,-90 3,-33 14,-59 33,-86 19,-26 41,-44 71,-57 30,-14 58,-18 91,-15 32,4 59,14 85,33 27,19 45,42 58,71 13,30 18,58 14,91 -3,32 -14,59 -33,85 -19,27 -41,45 -71,58 -30,13 -58,18 -90,14 -33,-3 -60,-13 -86,-33 z"
   id="path1241" />
       </g>
      </g>
     </g>
    </g>
   </g>
  </g>
 </g>
<path
   style="fill:none;stroke:#000000;stroke-width:26.4583px;stroke-linecap:butt;stroke-linejoin:miter;stroke-opacity:1"
   d="m 2947,1563 h 8293 L 13803,9451.0002 7092.0001,14322 384.99999,9451.0002 Z"
   id="path1261" /><path
   style="fill:none;stroke:#000000;stroke-width:21.296px;stroke-linecap:butt;stroke-linejoin:miter;stroke-opacity:1"
   d="M 3732.6344,11837.97 H 10407.59 L 12470.524,5488.9929 7068.9057,1568.3719 1670.5049,5488.9929 Z"
   id="path1261-3" /></svg>
