<?xml version="1.0" encoding="UTF-8" standalone="no"?>
<svg
   xmlns:dc="http://purl.org/dc/elements/1.1/"
   xmlns:cc="http://creativecommons.org/ns#"
   xmlns:rdf="http://www.w3.org/1999/02/22-rdf-syntax-ns#"
   xmlns:svg="http://www.w3.org/2000/svg"
   xmlns="http://www.w3.org/2000/svg"
   xmlns:sodipodi="http://sodipodi.sourceforge.net/DTD/sodipodi-0.dtd"
   xmlns:inkscape="http://www.inkscape.org/namespaces/inkscape"
   width="100%"
   height="100%"
   viewBox="0 0 133.05611 137.69669"
   version="1.1"
   id="svg2091"
   inkscape:version="1.0.1 (0767f8302a, 2020-10-17)"
   sodipodi:docname="justice.svg">
  <defs
     id="defs2085">
    <linearGradient
       x1="0"
       y1="0"
       x2="1"
       y2="0"
       gradientUnits="userSpaceOnUse"
       gradientTransform="matrix(0,-48.660023,-48.660023,0,873.92657,421.03995)"
       spreadMethod="pad"
       id="linearGradient1049">
      <stop
         style="stop-opacity:1;stop-color:#a4aec4"
         offset="0"
         id="stop1045" />
      <stop
         style="stop-opacity:1;stop-color:#dca8a9"
         offset="1"
         id="stop1047" />
    </linearGradient>
  </defs>
  <sodipodi:namedview
     id="base"
     pagecolor="#ffffff"
     bordercolor="#666666"
     borderopacity="1.0"
     inkscape:pageopacity="0.0"
     inkscape:pageshadow="2"
     inkscape:zoom="1.4"
     inkscape:cx="126.76702"
     inkscape:cy="183.0022"
     inkscape:document-units="mm"
     inkscape:current-layer="layer1"
     inkscape:document-rotation="0"
     showgrid="false"
     fit-margin-top="0"
     fit-margin-left="0"
     fit-margin-right="0"
     fit-margin-bottom="0"
     inkscape:window-width="1647"
     inkscape:window-height="1212"
     inkscape:window-x="896"
     inkscape:window-y="95"
     inkscape:window-maximized="0" />
  <metadata
     id="metadata2088">
    <rdf:RDF>
      <cc:Work
         rdf:about="">
        <dc:format>image/svg+xml</dc:format>
        <dc:type
           rdf:resource="http://purl.org/dc/dcmitype/StillImage" />
        <dc:title></dc:title>
      </cc:Work>
    </rdf:RDF>
  </metadata>
  <g
     inkscape:label="Layer 1"
     inkscape:groupmode="layer"
     id="layer1"
     transform="translate(-15.650594,-3.0238232)">
    <g
       id="g1033"
       transform="matrix(2.8297565,0,0,-2.8297565,-2390.8208,1194.4645)">
      <g
         id="g1035">
        <g
           id="g1041">
          <g
             id="g1043">
            <path
               d="m 868.889,420.34 c -1.987,-0.58 -3.794,-1.494 -5.074,-3.216 v 0 c -0.093,-0.124 -0.277,-0.204 -0.434,-0.252 v 0 c -2.363,-0.712 -4.61,-1.663 -6.614,-3.132 v 0 c -0.115,-0.084 -0.259,-0.136 -0.396,-0.177 v 0 c -1.277,-0.38 -2.554,-0.759 -3.833,-1.128 v 0 c -0.279,-0.08 -0.44,-0.217 -0.535,-0.512 v 0 c -0.955,-2.95 -1.482,-5.973 -1.573,-9.069 v 0 c -0.069,-2.313 0.125,-4.611 0.581,-6.878 v 0 c 0.044,-0.219 0.09,-0.437 0.139,-0.654 v 0 c 0.414,-1.863 0.992,-3.691 1.738,-5.447 v 0 c 0.703,-1.756 1.664,-3.44 2.718,-5.007 v 0 c 0.435,-0.647 0.895,-1.279 1.378,-1.892 v 0 c 0.776,-0.987 1.613,-1.927 2.504,-2.811 v 0 c 1.372,-1.359 2.879,-2.58 4.491,-3.642 v 0 c 1.974,-1.3 4.047,-2.414 6.324,-3.103 v 0 c 1.117,-0.339 2.236,-0.678 3.358,-1.004 v 0 c 0.16,-0.046 0.349,-0.047 0.511,-0.01 v 0 c 4.83,1.079 9.11,3.251 12.842,6.499 v 0 c 1.624,1.414 3.082,2.986 4.37,4.712 v 0 c 1.836,2.46 3.267,5.142 4.283,8.037 v 0 c 1.357,3.867 1.942,7.85 1.726,11.952 v 0 c -0.15,2.854 -0.674,5.63 -1.542,8.348 v 0 c -0.077,0.242 -0.198,0.381 -0.439,0.453 v 0 c -0.741,0.221 -1.482,0.44 -2.214,0.687 v 0 c -0.873,0.296 -1.843,0.329 -2.59,0.973 v 0 c -0.232,0.199 -0.495,0.365 -0.758,0.519 v 0 c -1.69,0.982 -3.482,1.726 -5.354,2.286 v 0 c -0.2,0.06 -0.384,0.221 -0.539,0.372 v 0 c -0.422,0.405 -0.789,0.873 -1.241,1.237 v 0 c -1.461,1.183 -3.184,1.818 -5,2.173 v 0 c -1.294,0.252 -2.587,0.386 -3.876,0.386 v 0 c -1.661,0 -3.315,-0.222 -4.951,-0.7"
               style="fill:url(#linearGradient1049);stroke:none"
               id="path1051" />
          </g>
        </g>
      </g>
    </g>
  </g>
</svg>
