<?xml version="1.0" encoding="UTF-8" standalone="no"?>
<svg
   xmlns:dc="http://purl.org/dc/elements/1.1/"
   xmlns:cc="http://creativecommons.org/ns#"
   xmlns:rdf="http://www.w3.org/1999/02/22-rdf-syntax-ns#"
   xmlns:svg="http://www.w3.org/2000/svg"
   xmlns="http://www.w3.org/2000/svg"
   xmlns:sodipodi="http://sodipodi.sourceforge.net/DTD/sodipodi-0.dtd"
   xmlns:inkscape="http://www.inkscape.org/namespaces/inkscape"
   width="100%"
   height="100%"
   viewBox="0 0 241.22498 241.22498"
   version="1.1"
   id="svg8"
   inkscape:version="1.0.1 (0767f8302a, 2020-10-17)"
   sodipodi:docname="Selensya.svg">
  <defs
     id="defs2">
    <filter
       style="color-interpolation-filters:sRGB;"
       inkscape:label="Drop Shadow"
       id="filter203004">
      <feFlood
         flood-opacity="0.803922"
         flood-color="rgb(42,29,4)"
         result="flood"
         id="feFlood202994" />
      <feComposite
         in="flood"
         in2="SourceGraphic"
         operator="in"
         result="composite1"
         id="feComposite202996" />
      <feGaussianBlur
         in="composite1"
         stdDeviation="2.6"
         result="blur"
         id="feGaussianBlur202998" />
      <feOffset
         dx="0"
         dy="2.3"
         result="offset"
         id="feOffset203000" />
      <feComposite
         in="SourceGraphic"
         in2="offset"
         operator="over"
         result="composite2"
         id="feComposite203002" />
    </filter>
  </defs>
  <sodipodi:namedview
     id="base"
     pagecolor="#ffffff"
     bordercolor="#666666"
     borderopacity="1.0"
     inkscape:pageopacity="0.0"
     inkscape:pageshadow="2"
     inkscape:zoom="2"
     inkscape:cx="123.2214"
     inkscape:cy="104.27445"
     inkscape:document-units="mm"
     inkscape:current-layer="layer1"
     inkscape:document-rotation="0"
     showgrid="false"
     inkscape:window-width="1647"
     inkscape:window-height="1212"
     inkscape:window-x="990"
     inkscape:window-y="93"
     inkscape:window-maximized="0"
     fit-margin-top="0"
     fit-margin-left="0"
     fit-margin-right="0"
     fit-margin-bottom="0" />
  <metadata
     id="metadata5">
    <rdf:RDF>
      <cc:Work
         rdf:about="">
        <dc:format>image/svg+xml</dc:format>
        <dc:type
           rdf:resource="http://purl.org/dc/dcmitype/StillImage" />
        <dc:title></dc:title>
      </cc:Work>
    </rdf:RDF>
  </metadata>
  <g
     inkscape:label="Layer 1"
     inkscape:groupmode="layer"
     id="layer1"
     transform="translate(18.317758,-34.078306)">
    <circle
       style="fill:#9dff85;fill-opacity:1;fill-rule:evenodd;stroke:#4b0909;stroke-width:3.465;stroke-miterlimit:4;stroke-dasharray:none;stroke-opacity:1"
       id="path1050"
       cx="102.29473"
       cy="154.6908"
       r="118.87999" />
    <path
       id="path974"
       style="fill:#181818;stroke:none;stroke-width:1.60346;filter:url(#filter203004)"
       d="M 100.4364,46.109567 90.81562,65.351117 68.367144,47.71303 66.763682,70.161504 44.315206,58.937267 v 25.6554 L 20.263268,79.782279 29.884044,105.43768 4.2286437,107.04114 18.659806,134.3 -3.788669,143.92078 v 1.60346 l 24.051937,12.8277 c 0.0016,-15.10301 1.980116,-29.51173 8.530742,-43.29349 25.464749,-53.575205 95.18811,-59.891885 133.96256,-17.493293 16.04906,17.549413 21.05988,39.349773 21.05988,62.390243 L 207.20966,146.95896 187.02337,134.3 l 12.82771,-25.6554 -25.65541,-1.60346 9.62078,-27.258861 -24.05194,6.41385 V 58.937267 L 138.9195,70.161504 135.71257,47.71303 116.47102,66.954579 h -3.20692 l -9.62078,-20.845012 h -3.20692 m 75.36274,84.983513 1.79061,-0.70216 C 174.04646,118.45208 166.56614,108.53335 151.7472,108.6446 159.39441,93.930871 149.98343,85.488469 137.03939,80.134644 l -0.60072,1.908067 -10.34687,10.567268 -2.18783,-18.072582 -14.71607,-3.168082 -5.54458,8.412964 H 100.4364 C 88.595947,60.495031 80.030089,85.573825 76.384457,94.213441 65.619611,73.54946 44.683201,89.832782 52.332519,108.6446 c -21.675446,-0.91397 -30.344727,17.51895 -11.224238,30.46579 -9.39148,3.91004 -17.26865,6.5224 -17.638088,17.63809 14.31844,-5.21045 25.407987,-10.83556 41.232238,-6.56602 49.753839,13.42403 14.229977,94.12421 -34.575734,82.53759 6.346986,13.16924 27.086281,8.85013 38.240447,8.86777 l -11.224237,8.01731 c 7.074316,6.55656 15.254861,-1.0214 22.448475,-4.81038 l -8.017313,11.22423 -1.777655,0.74846 c 1.312432,2.16895 2.759751,3.73516 4.385451,4.8862 l 0.599129,-2.42773 v -1.60346 l 6.326479,-3.69597 0.08737,6.90289 0.271064,3.61053 c 2.542033,0.46116 5.409235,0.68261 8.672602,0.97057 l 0.67711,-2.97764 4.767139,-4.85457 1.646711,4.85457 0.981207,3.34143 c 4.881604,0.0513 6.839944,-0.0946 10.733254,-0.0946 v -1.60346 l -2.09368,-1.64339 1.60346,-4.81038 h 3.20693 l 1.60346,8.01731 c 4.05412,-0.46661 5.67769,-2.26995 7.92376,-3.43166 0,0 0.90535,-1.22553 1.02303,-1.4457 0.7271,-1.36045 0.48247,-2.34217 0.67398,-4.74342 6.17478,2.23363 11.75563,4.42716 16.03463,-1.60346 -7.77792,-0.23571 -11.02012,-4.5843 -14.43116,-11.22424 6.53411,5.37321 20.37946,6.84929 29.09989,5.41259 v -3.20693 l -17.87566,-3.80912 c 11.12002,2.15666 37.66557,-1.39027 44.91322,-12.10301 -16.77703,-1.84398 -53.74717,5.93128 -64.44547,-10.36952 -11.43349,-17.42001 -2.26025,-63.78427 21.13572,-65.57374 13.39853,-10.96784 30.54275,-2.25334 43.29348,4.81039 -5.3e-4,-3.93879 -1.23272,-10.38148 -1.53472,-14.48436 l -1.54073,-0.46362 -12.95917,-2.69011 v -3.20692 M 89.212157,76.575354 c 9.175334,15.720186 7.157697,25.970796 6.41385,43.293486 H 94.022545 C 87.349254,105.78531 81.912715,91.764473 89.212157,76.575354 m 27.258863,0 c 0.36383,17.623817 0.5083,26.750246 -6.41385,43.293486 h -1.60346 c -3.56209,-14.96191 -2.90644,-31.62557 8.01731,-43.293486 m -59.328113,12.8277 c 12.394284,10.942826 21.021073,20.668626 25.6554,36.879636 -11.977384,-7.72436 -27.096272,-21.07912 -25.6554,-36.879636 m 89.793903,0 c -2.97763,17.522156 -10.99783,27.185586 -25.6554,36.879636 4.13373,-14.34939 13.63777,-28.034463 25.6554,-36.879636 M 71.574069,131.09308 v 1.60346 c -13.778874,-2.59601 -25.920934,-4.55095 -35.276175,-16.03462 14.292463,0.6231 23.91388,6.27066 35.276175,14.43116 m 96.207751,-14.43116 c -8.61059,10.57724 -18.76852,14.39444 -32.06925,14.43116 8.54486,-9.31676 20.09299,-11.95927 32.06925,-14.43116 m -65.74196,118.51205 c 3.52345,5.89112 3.52345,11.74697 0,17.63809 -3.523451,-5.89112 -3.523451,-11.74697 0,-17.63809 m -9.620778,8.01731 -6.41385,16.03463 3.206925,-16.03463 h 3.206925 m 20.845018,1.60347 h 1.60346 l 4.81039,14.43116 c -4.99543,-3.27588 -8.04457,-8.48553 -6.41385,-14.43116"
       sodipodi:nodetypes="ccccccccccccccccccccccccccccccccccccccccccccccccccccccccccccccccccccscccccccccccccccccccccccccccccccccccccccccccccc" />
  </g>
</svg>
