<?xml version="1.0" encoding="UTF-8" standalone="no"?>
<svg
   xmlns:dc="http://purl.org/dc/elements/1.1/"
   xmlns:cc="http://creativecommons.org/ns#"
   xmlns:rdf="http://www.w3.org/1999/02/22-rdf-syntax-ns#"
   xmlns:svg="http://www.w3.org/2000/svg"
   xmlns="http://www.w3.org/2000/svg"
   xmlns:sodipodi="http://sodipodi.sourceforge.net/DTD/sodipodi-0.dtd"
   xmlns:inkscape="http://www.inkscape.org/namespaces/inkscape"
   version="1.1"
   id="svg5019"
   width="860.61194"
   height="860.61194"
   viewBox="0 0 860.61194 860.61194"
   sodipodi:docname="temur.svg"
   inkscape:version="1.0.1 (0767f8302a, 2020-10-17)">
  <metadata
     id="metadata5025">
    <rdf:RDF>
      <cc:Work
         rdf:about="">
        <dc:format>image/svg+xml</dc:format>
        <dc:type
           rdf:resource="http://purl.org/dc/dcmitype/StillImage" />
        <dc:title></dc:title>
      </cc:Work>
    </rdf:RDF>
  </metadata>
  <defs
     id="defs5023" />
  <sodipodi:namedview
     pagecolor="#ffffff"
     bordercolor="#666666"
     borderopacity="1"
     objecttolerance="10"
     gridtolerance="10"
     guidetolerance="10"
     inkscape:pageopacity="0"
     inkscape:pageshadow="2"
     inkscape:window-width="1613"
     inkscape:window-height="912"
     id="namedview5021"
     showgrid="false"
     fit-margin-top="0"
     fit-margin-left="0"
     fit-margin-right="0"
     fit-margin-bottom="0"
     inkscape:zoom="0.35654098"
     inkscape:cx="-17.592032"
     inkscape:cy="552.24761"
     inkscape:window-x="486"
     inkscape:window-y="311"
     inkscape:window-maximized="0"
     inkscape:current-layer="g5027" />
  <g
     inkscape:groupmode="layer"
     inkscape:label="Image"
     id="g5027"
     transform="translate(-72.062317,34.441986)">
    <circle
       style="fill:#fbff00;fill-opacity:1;fill-rule:evenodd"
       id="path5045"
       sodipodi:type="arc"
       sodipodi:cx="502.36829"
       sodipodi:cy="395.86398"
       sodipodi:rx="430.30597"
       sodipodi:ry="430.30597"
       sodipodi:start="5.0963963"
       sodipodi:end="5.0823736"
       sodipodi:arc-type="arc"
       d="M 663.57766,-3.1031406 A 430.30597,430.30597 0 0 1 901.8981,555.67372 430.30597,430.30597 0 0 1 343.96015,795.95159 430.30597,430.30597 0 0 1 101.72781,238.8594 430.30597,430.30597 0 0 1 657.96739,-5.3244322"
       sodipodi:open="true" />
    <path
       style="fill:#131107;stroke:none"
       d="m 365.16044,119.78911 c 3.158,8.929 -14.263,14.461 -17,22 h -2 l -3,-3 -2,8 c -0.374,6.268 -8.748,14.063 -12.884,18.714 -8.676,9.755 -16.777,21.545 -22.689,33.286 -7.718,15.328 -14.972,30.236 -19.507,47 -6.889,25.467 -9.204,50.181 -18.763,75 -6.451,16.749 -28.236,26.508 -32.157,43 h 1 l 7,-9 c -4.549,13.122 -15.217,21.307 -23.316,32 -7.001,9.245 -13.215,24.106 -17.684,35 h 2 c -5.35,11.305 -12.954,23.877 -15.957,36 -3.404,13.743 -1.639,28.943 -3.963,43 -2.795,16.911 -6.554,37.615 3.92,53 h 1 l 21.379,-47.871 11.621,-20.129 h 1 v 3 l 6,-14 9.47,-6.861 20.53,-27.139 c -2.357,0 10.644,-10.336 14,-12.667 10.187,-7.074 22.945,-12.332 34,-18.166 30.955,-16.338 67.255,-12.857 100,-26.5 10.525,-4.386 19.199,-9.98 29,-15.834 4.839,-2.889 7.038,-6.833 13,-6.833 v 6 l 3,-1 c -0.524,-8.756 7.161,-20.951 14,-26 v 4 c 14.928,-1.122 18.728,-8.464 26.865,-18.91 5.001,-6.422 9.142,-9.72 10.135,-18.09 7.428,-0.918 6.944,-17.566 6,-23 l -3,-2 c -4.843,5.886 -9.993,15.778 -18,17 -0.824,5.044 -3.466,5.679 -8,4 l -1,5 c -6.561,-4.183 -2.978,-11.449 -2,-18 l -7,-1 -11,-13 -1,3 -1,-4 c -3.542,-3.032 -5.115,-6.223 -10,-4 -0.634,-4.073 -11.565,-17.598 -15,-14 -4.834,-4.04 -3.962,-9.927 -0.031,-14.698 8.725,-10.585 22.425,-17.884 26.031,-32.302 l 6,3 c 6.042,-11.647 17.493,-16.385 28,-22.839 24.692,-15.166 47.444,-26.177 77,-28.25 9.825,-0.69 17.311,-3.563 27,0.089 1.948,-3.41 4.126,-4.222 8,-4 l -7,2 v 1 c 4.323,1.027 8.741,0.277 13,1.31 6.845,1.66 12.824,5.647 20,6.506 5.042,0.603 9.165,-1.404 14,-1.561 6.579,-0.214 15.871,3.113 22,5.452 7.791,2.973 13.178,8.987 20,13.414 31.579,20.494 55.479,50.105 65.039,86.879 1.562,6.007 4.811,10.619 4.961,17 h 3 v 5 l 6,-3 1,37 h 1 l 1,-3 h 1 l 1,12 h 3 l 1,11 h 1 v -3 h 1 l -1,17 h 1 l 1,-4 h 1 l -3,29 h 1 c 14.946,-22.877 16,-51.675 16,-78 l 2,2 h 1 c 0.625,-30.266 4.399,-63.503 -3.184,-93 -4.047,-15.741 -11.835,-27.638 -20.198,-41 -3.353,-5.357 1.653,-10.529 -2.618,-15 v 4 c -8.316,-2.827 -12.779,-10.689 -18.375,-16.895 -4.72,-5.235 -9.766,-7.834 -13.625,-14.105 h -1 v 4 c -20.494,-15.615 -38.865,-35.441 -64,-44 l 2,3 -16,-7 v -1 l 10,3 c -3.218,-5.026 -17.067,-10.86399 -23,-9.99999 l 3,3.99999 -32,-5.99999 c -0.277,-2.577 -1.132,-3.822 -4.005,-4.444 -8.965,-1.9439 -17.056,-3.3095 -25.995,-6.3338 -2.094,-0.7085 -12.405,-0.8645 -7,-4.2222 l -16,-0.6605 -26,-4.9344 -21,5.1697 -60,15.0242 -9,5.37399 -44,13.993 -38,19.034 m 216,-52.99999 v 1 l 5,1 -5,-2 m 28,7 v 1 h 7 l -7,-1 m 22,4 4,2 -4,-2 m 9,3 1,1 -1,-1 m 11,5.99999 7,3 v 1 l -8,-3 1,-1 m 24,12 -1,1 1,-1 m -325,34 -4,6 4,-6 m 390,1 2,3 -2,-3 m 24,25 v 2 h 2 v -2 h -2 m 6,14 1,1 -1,-1 m -331.667,69.667 0.334,0.666 -0.334,-0.666 m -1.333,3.333 c -1.801,4.47 -1.356,7.52 3,10 l -3,-10 m -3,10 v 2 h -2 l 2,-2 m 45.333,36.667 0.334,0.666 -0.334,-0.666 m 277.667,4.333 1,1 -1,-1 m -302,75 v -4 h -2 l -6,10 -3,-1 -1,5 c -8.341,1.357 -26.153,18.088 -29,26 l -3,-2 -1,3 -4,-2 -14,16 3,-6 c -14.062,10.38 -23.743,30.536 -33.769,44.575 -4.105,5.747 -10.884,9.382 -14.231,15.425 l -3,-1 c -6.197,18.846 -19.523,36.404 -28.598,54 -7.576,14.688 -9.686,31.127 -13.071,47 -2.18,10.223 -6.331,18.367 -6.331,29 l -2,-1 c 0,30.706 -5.928,59.835 7,89 h 1 c -1.725,-21.863 8.781,-42.304 17.826,-62 9.481,-20.645 19.472,-42.387 34.5,-59.985 12.699,-14.872 32.535,-29.729 48.959,-40.294 10.652,-6.852 22.895,-10.032 33.715,-16.314 10.698,-6.212 22.366,-10.643 33,-16.679 12.476,-7.08 28.893,-19.214 44,-17.728 l 35,-19 -1,-5 2,3 h 1 c 0.71,-3.058 0.669,-4.268 -2,-6 l 4,-11 -4,1 v -5 l 3,1 -2,-5 c 6.146,-1.725 9.797,-7.127 14.08,-11.576 13.679,-14.207 20.499,-35.649 20.92,-55.424 -2.131,1.495 -4.001,3.146 -6.005,4.809 -1.483,1.232 -11.444,7.837 -9.807,1.152 1.881,-7.68 8.726,-14.659 11.812,-21.961 h 5 v -1 h -4 c -0.303,-6.612 -3.691,-22.903 -8.725,-27.4 -8.137,-7.269 -22.638,-5.205 -32.275,-3.6 l 1,-3 c -9.333,-1.788 -24.543,10.496 -29.521,18.09 -2.327,3.549 -2.674,9.174 -5.758,11.956 -3.892,3.51 -9.439,3.223 -13.631,5.882 -12.775,8.103 -23.034,14.776 -38.09,19.072 m 308.333,-35.333 0.334,0.666 -0.334,-0.666 m -317.333,34.333 -2,4 2,-4 m 333.667,21.333 0.666,0.334 -0.666,-0.334 m -427,7 0.666,0.334 -0.666,-0.334 m 207.333,30.667 -7,6 v 1 l 7,-7 m 73,3 v 2 h 2 v -2 h -2 m -3,4 c -11.483,8.881 -22.715,-0.359 -35,5.264 -8.875,4.062 -19.789,11.277 -25.995,18.84 -3.034,3.696 -3.929,9.425 -7.298,12.516 -3.697,3.393 -9.337,3.265 -13.707,5.38 -1.963,8.398 -16.107,12.623 -21.316,20 -11.133,15.765 -27.782,30.794 -36.406,48 -5.14,10.255 -8.189,30.533 -19.278,36 l -13,79 -4,-3 h -2 c -0.688,4.186 0.327,5.934 4,8 v 1 l -4,6 h 1 l 4,-5 3,30 c 9.006,5.257 9.991,27.682 14,37 6.558,-9.839 4.777,-25.993 9.069,-37 2.863,-7.341 8.253,-13.892 11.812,-21 10.455,-20.881 18.692,-38.913 35.509,-55.702 21.999,-21.964 45.975,-38.74 73.61,-53.04 10.68,-5.525 20.522,-12.22 31,-17.854 4.915,-2.642 10.979,-2.179 14,-7.404 l -17,-1 2,6 h -15 l 9,-7 -3,-1 c 12.398,-13.46 26.605,-24.377 35.194,-41 2.169,-4.197 6.86,-10.058 6.307,-15 -0.407,-3.632 -3.727,-6.913 -5.501,-10 13.515,-2.761 0.776,-13.663 0,-21 -5.909,1.952 -9.222,10.293 -10,16 h -1 l -20,-33 m -444,21 -1,6 h 1 v -6 m 309.333,77.667 0.334,0.666 -0.334,-0.666 m 150.667,5.333 1,1 -1,-1 m -186,65 -5,8 c 3.406,-1.68 6.047,-4.001 5,-8 m -6,26 -1,3 h 3 l -2,-3 m 59,34 v 2 h 2 v -2 h -2 m -29,50 v 2 h 2 v -2 z"
       id="path5043" />
  </g>
</svg>
