<svg version="1.1" viewBox="0 0 286.66 286.66" xmlns="http://www.w3.org/2000/svg">
  <defs>
    <filter id="a" color-interpolation-filters="sRGB">
      <feFlood flood-color="rgb(35,24,3)" flood-opacity=".80392" result="flood"/>
      <feComposite in="flood" in2="SourceGraphic" operator="in" result="composite1"/>
      <feGaussianBlur in="composite1" result="blur" stdDeviation="2"/>
      <feOffset dx="0" dy="2.3" result="offset"/>
      <feComposite in="SourceGraphic" in2="offset" result="composite2"/>
    </filter>
  </defs>
  <g transform="translate(43.049 28.441)">
    <circle cx="100.28" cy="114.89" r="139.95" fill="#5cbf46" fill-rule="evenodd" stroke="#131318" stroke-width="6.765"/>
    <path d="m138.19 216.19c-.68065-.29545-.98393-.31598-1.2617-.0854-.28073.23299-.47699.20281-.8446-.12988-.26339-.23836-.60965-.43339-.76947-.43339-.57779 0-4.298-1.8584-4.298-2.147 0-.16277-.22922-.23601-.50937-.16275-.36563.0956-.46793.0252-.36252-.24951.0896-.2336-.051-.43445-.36094-.5155-.27929-.073-.62218-.38566-.76197-.69471-.24228-.53564-1.0026-1.0218-.86768-.5548.11487.39769-.59559 1.4337-.86781 1.2654-.17037-.1053-.15416-.2958.0457-.53658.24389-.29386.22316-.37332-.0974-.37332-.22396 0-.62549.28666-.89229.63702-.38939.51134-.60329.59104-1.0842.40397-.32954-.12817-.71355-.53388-.85335-.90159-.15287-.40208-.46149-.66856-.77428-.66856-.28606 0-.59369-.11907-.68363-.26459-.0899-.14552-.39462-.26458-.67707-.26458-.41407 0-.5168.19221-.53032.99219-.0142.84038-.0524.90375-.24966.41417-.12809-.31791-.46521-.70235-.74915-.85431s-.64165-.636-.79491-1.0756c-.26501-.76022-.83534-1.1147-.83534-.51914 0 .15411-.12391.20362-.27535.11003-.15144-.0936-.21369-.36851-.13833-.61093.19693-.63352-.13726-.97114-1.0028-1.0131-.57631-.0279-.85809.14466-1.1906.72922-.44349.77961-.93477.98124-1.2294.50455-.28896-.46754-.66133-.2826-.66592.33073-.004.53422-.061.50707-.55515-.26458-.30288-.47294-.71461-.8599-.91497-.8599-.25321 0-.32377-.22184-.23142-.7276.0731-.40018.0403-.86148-.0728-1.0251-.28011-.40527-1.9254-.74847-1.9254-.40163 0 .16181-.38533.20644-.96718.11202-.69537-.11284-.91405-.071-.77813.14893.11966.19362-.0109.30587-.35574.30587-.29963 0-.54478.12709-.54478.28242 0 .16582-.22769.21015-.55155.10735-.36914-.11716-1.0865.11008-2.1691.68711l-1.6176.86215-1.2808-.4549c-1.2712-.4515-2.3185-.38212-2.3185.1536 0 .17901-.1363.16603-.37996-.0362-.25253-.20958-.54092-.23268-.8599-.0689-.26396.13555-1.105.3168-1.869.40277-1.11.12492-1.3891.0791-1.3891-.22809 0-.65066-.62702-.42756-1.352.48106-.93881 1.1766-1.1824 2.0028-.65061 2.2068.43677.16761.57576.63185.18917.63185-.12427 0-.5519-.30208-.95028-.67129-.57131-.52947-.65971-.74916-.41843-1.0399.23963-.28873.19691-.42693-.19716-.63783-.70769-.37875-2.1664-.13953-3.0265.49631l-.72814.53834-.33315-.53345c-.43284-.69309-1.6315-.6953-2.3225-.004-.29104.29105-.52917.64823-.52917.79375s-.11906.26459-.26458.26459c-.14552 0-.26458-.16402-.26458-.36448s-.19125-.5232-.425-.7172c-.31377-.2604-.39129-.65179-.2962-1.4954.12041-1.0683.0921-1.1314-.4349-.96976-.31003.0951-.77669.39626-1.037.66925-.9528.99912-1.7116.39051-.78696-.63121.43667-.48251.43578-.5251-.01789-.85682-.45995-.33632-.45982-.37026.0035-.92905.26449-.31898 1.5525-1.3891 2.8621-2.378 3.2627-2.4636 4.4275-3.5852 4.3166-4.1567-.05057-.26059-.2686-.47695-.4845-.4808-.2159-.004-.54269-.10098-.7262-.21586-.21045-.13175-.61987.0773-1.1088.56622-.60249.60249-1.0143.7751-1.8492.7751-.59073 0-1.0741-.11741-1.0741-.2609 0-.1435-.17859-.11268-.39688.0685-.32461.2694-.39688.25242-.39688-.0933 0-.3285-.17681-.38729-.79375-.2639-.61768.12353-.79375.0647-.79375-.2651 0-.23312-.29974-.62025-.66609-.86029-.43663-.28609-.58387-.53884-.42743-.7337.39396-.49071.64052-2.0171.32583-2.0171-.15431 0-.35527-.29766-.44658-.66146s-.29598-.66146-.45483-.66146c-.19599 0-.18878-.10004.02244-.31124.23861-.23861.4362-.19817.84667.17329.46739.42299.53542.4305.53542.0591 0-.67843-.56338-1.7298-1.021-1.9054-.24033-.0922-.55722.0261-.74031.27653-.17606.24077-.44816.35863-.60466.2619-.44975-.27796-1.3355.11393-1.3645.60373-.02751.46438-.12184.28137-.63059-1.2234-.12068-.35694-.35313-.55395-.55996-.47458-.1945.0746-.424.0218-.51001-.11732-.23676-.3831-.9189-.3028-.9189.10816 0 .19866.24677.67491.54837 1.0583.67662.86019.55994.86546-1.0541.0476-1.3409-.6795-1.6109-.64931-1.6109.18013 0 .27538-.11906.4271-.26458.33716-.14552-.0899-.26458-.51368-.26458-.94166 0-.46812-.13914-.77813-.34925-.77813-.19209 0-.81928-.38695-1.3938-.8599-.57448-.47294-1.2805-.99324-1.569-1.1562-.32064-.18118-.49267-.51317-.44265-.85426.05532-.37722-.15893-.70969-.66155-1.0266-1.3683-.86262-4.8082-3.5033-5.0023-3.84-.10552-.18305.09523-.0798.44612.22944.35089.30923.93563.71111 1.2994.89306s1.2896.80895 2.0572 1.3934c1.5141 1.1526 1.9935 1.1593 1.2453.0174-.32264-.49242-.37616-.75471-.16813-.82405.16784-.0559.30516-.36407.30516-.68473 0-.67741-2.1567-3.077-2.7655-3.077-.57794 0-.50915.35557.21057 1.0884.34105.34726.82976.98857 1.086 1.4251l.46591.79375-.62299-.69265c-.34264-.38096-1.129-1.0219-1.7475-1.4242-.61846-.40237-1.1245-.78231-1.1245-.84432 0-.062.12007-.0385.26682.0522.28128.17385.81284-.91797.61254-1.2582-.21254-.36097-.87936-.20587-.87936.20454 0 .3545-.07833.35165-.65114-.0237-.35813-.23466-.728-.6688-.82193-.96476-.09393-.29597-.66117-1.0592-1.2605-1.6961-.7788-.82759-1.2992-1.158-1.8239-1.158-.83233 0-.9382.39434-.29629 1.1036.24083.26613.31882.48386.1733.48386-.14552 0-.47834-.2362-.7396-.52489-.32758-.36197-.66879-.47625-1.0993-.36819-.53207.13354-.62432.0584-.62432-.50868 0-.53331.10418-.63812.52492-.5281.28871.0755.835.0594 1.214-.0357.59936-.15043.64297-.22866.33498-.60102-.49341-.59653-2.8572-1.6611-3.6952-1.6642-.38241-.001-1.1394-.18815-1.6822-.41496-.54282-.22681-1.0483-.35102-1.1233-.27603-.25037.25038-2.0261-1.2297-5.2304-4.3596-1.7462-1.7057-3.4368-3.1788-3.7568-3.2735-.31998-.0947-.65542-.40424-.74543-.68783-.17495-.55122-.65716-.71239-.65716-.21965 0 .16279-.40878-.0158-.90839-.39687-.866-.66054-2.002-.93301-2.002-.48019 0 .11698.42649.623.94776 1.1245 1.5654 1.506 1.6024 1.8414.12515 1.1345-1.3521-.64709-1.6504-1.0392-1.4304-1.8804.18814-.71944-.6371-.99549-1.2683-.42425-.29114.26348-.4909.3199-.4909.13867 0-.46772-.73521-.36322-1.0196.14493-.20293.36262-.32801.38754-.64107.12772-.21392-.17753-.5568-.25838-.76197-.17965-.21587.0828-1.1496-.52459-2.2163-1.4419-1.0138-.87175-1.9973-1.589-2.1854-1.5938-.18813-.005-.90824-.53838-1.6002-1.1856-.69199-.64728-1.5726-1.2964-1.9568-1.4425-.38427-.14611-1.1826-.89644-1.774-1.6674s-1.4024-1.753-1.8021-2.1823-.69134-.89303-.64794-1.0305c.04341-.13749-.21089-.56016-.56511-.93926s-.83013-1.0586-1.0576-1.5099c-.46825-.92914-1.6365-1.8026-2.0605-1.5406-.15511.0959-.22521.47154-.15576.83482l.12626.66052-.63052-.67998c-.34678-.37399-.63052-.78579-.63052-.91511 0-.37887-.92905-1.1109-1.4099-1.1109-.2432 0-.44219-.17859-.44219-.39687 0-.21829-.12708-.39688-.28241-.39688-.15693 0-.2116-.22309-.12305-.5021.13991-.44083.03116-.49555-.89128-.44845-1.0019.0512-1.0442.0215-.91203-.63939.11298-.56489-.03692-.82692-.81068-1.4171-.52211-.39823-.94929-.60513-.94929-.45977 0 .17341-.27207.16944-.79129-.0116-.90778-.31646-2.1191-1.6368-2.1191-2.3098 0-.52013-.49-1.091-.93649-1.091-.16582 0-.45331.32743-.63886.72761l-.33738.7276-.23835-.62942c-.15651-.41329-.13597-.75277.0598-.98867.23416-.28214.02207-.61597-.9881-1.5552-1.0701-.99499-1.4157-1.1731-2.0566-1.0599-.74834.13219-.75706.12138-.30481-.37835.47992-.53031.37098-1.0769-.21464-1.0769-.33893 0-1.4883 1.8157-1.4883 2.3511 0 .16209.23812.2947.52917.2947.34741 0 .52917.17639.52917.51355 0 .72744-.50236.94717-.90538.396-.47052-.64347-1.1241-.32145-1.3396.66008-.09804.44639-.32512.81162-.50461.81162s-.67324.36208-1.0972.80462c-.75571.78879-3.3565 2.4221-2.825 1.7741.25146-.30655.41944-1.244.35115-1.9595-.01783-.1868-.5036-.29965-1.2418-.28849-.96917.0147-1.3654.17124-1.9745.78027-.70134.70134-.86709.748-2.0839.58658-1.1775-.1562-1.4121-.0995-2.1469.51874-.45369.38175-1.0743.6941-1.3791.6941-.3048 0-.74215.15738-.97189.34974-.22974.19235-1.1916.68208-2.1375 1.0883-.94589.40621-1.8691.92709-2.0516 1.1575s-.87208.62406-1.5324.87471l-1.2006.45573.18916-.57393c.10404-.31566.16819-.86219.14256-1.2145-.02564-.3523.13234-.91366.35105-1.2475.21871-.33379.39766-.7894.39766-1.0125 0-.22306.41672-.84737.92604-1.3874.71315-.75607.92604-1.2059.92604-1.9567 0-.6225.14346-1.03.39688-1.1272.2207-.0847.39738-.47898.39801-.8882.000529-.40475.35745-1.2717.79294-1.9265.4355-.65485.98034-1.7562 1.2108-2.4474.23042-.69122.50581-1.2568.61199-1.2568.20545 0 1.1917-2.7623 1.4704-4.1184.12266-.5968.02418-.99232-.37276-1.4969-.66735-.8484-.66919-1.2152-.01032-2.0576.28457-.3638.52121-.95911.52587-1.3229.0047-.36381.30496-1.2984.66734-2.0768.36238-.77843.65887-1.5694.65887-1.7576 0-.18826.17859-.41082.39688-.49459.68489-.26281.41883-2.021-.30583-2.021-.40455 0-1.3984-1.9229-1.4082-2.7246-.0032-.26161-.30773-.75546-.67674-1.0974-.46292-.42902-.74271-1.0608-.90246-2.0379-.12734-.77885-.5348-2.0188-.90548-2.7554-.37068-.73659-.75423-1.8413-.85235-2.4549-.20763-1.2984-1.4993-3.3838-2.2419-3.6195-.57612-.18286-1.241-1.1853-.78615-1.1853.44987 0 .31507-.76811-.4237-2.4143-.69523-1.5492-1.1451-1.9706-1.165-1.0914-.0057.25466-.52342-.84667-1.1504-2.4474-.62696-1.6007-1.6343-3.9977-2.2385-5.3266-.60422-1.3289-1.1028-2.7576-1.108-3.175-.0052-.41734-.17953-1.0565-.3875-1.4203-.23743-.41533-.38268-1.4491-.39036-2.7781-.0067-1.1642-.18115-2.6732-.3876-3.3535-.53274-1.7554-.1137-3.1288.95464-3.1288.73842 0 .74936.0229.74936 1.5672 0 1.3089.11774 1.7123.71432 2.4474.39288.48411.75006.9298.79375.99044.04369.0606.15759.0321.25312-.0634.09553-.0955-.01543-.62139-.24658-1.1686-.23115-.54719-.47309-1.5587-.53764-2.2478-.06455-.68913-.30995-1.5226-.54534-1.8521-.23539-.32952-.60709-.84468-.826-1.1448-.34407-.47171-.34746-.61482-.025-1.0558.36179-.49478.39382-.4877 1.0636.23502.85152.9188 1.2459.81504 1.6633-.43763.3956-1.1871.27818-1.5328-.72093-2.123-.96209-.56832-1.5074-2.1314-1.1342-3.2514.34367-1.0315.82275-1.0517 1.9949-.0842 1.0623.87682 1.247 1.6632.71778 3.0552-.42255 1.1114.14658 3.546.82896 3.546.36359 0 .56446.23718.67687.79926.18238.91187.58488 1.2743.88176.79389.14371-.23252.25411-.2423.38291-.0339.22009.35611 1.2081.39199 1.2081.0439 0-.13693-.10591-.31442-.23535-.39442s-.29542-.53351-.36883-1.0078c-.07341-.47429-.33041-1.3867-.57111-2.0275-.52355-1.3939-.39333-1.8776.50552-1.8776.47462 0 .66976.14223.66976.48816 0 .53817.46845.98398 1.8217 1.7337l.89565.49617-.12404-1.4251c-.06822-.78383-.4531-2.199-.85527-3.1449-.40218-.94588-.81886-2.2195-.92596-2.8302s-.31755-1.2656-.46767-1.4552c-.15011-.18965-.33607-.84231-.41324-1.4504-.1152-.90771-.06947-1.0784.25559-.95361.3501.13434.351.0633.0078-.61426-.21346-.42139-.53874-1.421-.72285-2.2214-.1841-.80036-.44501-1.5947-.57979-1.7651-.17257-.21824-.10362-.27592.23309-.195.26298.0632.64828.004.85623-.13184.32372-.21128.3271-.45931.02352-1.7247-.19501-.81287-.27322-1.5593-.17382-1.6587.0994-.0994.65098.34775 1.2257.99367.60402.67882 1.0499 1.0069 1.0566.77753.01027-.35278.04275-.35278.29224 0 .21122.29866.31388.31503.41487.0661.23437-.57761.59321-.36073 1.1237.67915.28336.55544.72145 1.1805.97352 1.3891.25207.20854.71576.91495 1.0304 1.5698 1.0298 2.1432 1.5835 2.9228 2.1861 3.0783.32642.0842.53609.246.46593.35951-.07015.11351.03189.3387.22677.50043.26407.21917.57132.18581 1.2063-.13096.81413-.40614.87968-.39901 1.4753.16051.70047.65806 1.1828.52032 1.2095-.34541l.01791-.57969.28711.59531c.3552.73648.64802.75831.86816.0647.13763-.43364.3782-.52268 1.3163-.4872.85555.0324 1.1123.13633 1.008.40818-.07698.20061.06473.59094.31491.86739.48645.53753.35071 1.0652-.27403 1.0652-.52554 0-.47859.44551.08176.77576.38389.22625.39991.31437.09374.51561-.45508.29912-.19318 1.0899.36099 1.0899.22285 0 .40518.10992.40518.24428 0 .34111 1.3175 1.8724 1.611 1.8724.13259 0 .24106-.23812.24106-.52916 0-.29105.0893-.52615.19844-.52245.10914.004.91066.59901 1.7812 1.3229.8705.72391 1.6771 1.3162 1.7925 1.3162s.32293.29766.46125.66146c.30446.80078.79375.87122.79375.11428 0-.54384.0045-.54408.7276-.0386.40018.27972 1.0434.58484 1.4294.67802.38597.0932 1.2007.7654 1.8106 1.4938 1.2371 1.4775 1.7061 1.6902 1.316.59676-.24292-.68092-.23401-.69465.13884-.21402.21913.28248.39842.61217.39842.73265 0 .37963 1.4234-.10965 2.2031-.75731.41134-.34167.84166-.62122.95624-.62122.11458 0 .41538.54215.66844 1.2048.32544.85214.58764 1.1784.89584 1.1146.33746-.0698.41923-.34608.36254-1.2247-.04676-.72473.02492-1.0739.19844-.96668.14939.0923.2729.30968.27445.48299.0016.17331.42572.72607.94259 1.2284s1.1366 1.2464 1.3771 1.6536c.54296.91915.96594.96404.74379.079-.20005-.79707.11856-.85225.76926-.13323.65868.72783 1.1915.24051 1.1915-1.0898 0-.56427.12655-1.0259.28122-1.0259.15467 0 .24934.20836.21037.46302-.08407.54951.47722 1.6536.84064 1.6536.1404 0 .25528-.1647.25528-.36601 0-.63628 1.1453-.75559 1.5536-.16184.49524.72016.82762.66276.82762-.14291 0-.58118.06835-.63419.51177-.39688.67848.36311.88172.34564.66099-.0568-.09976-.1819.13616-.003.52426.39688.45182.46587.983.7276 1.4767.7276.66895 0 .79363-.12035.94156-.90887.09378-.49988.09215-1.0357-.0036-1.1906-.25126-.40654.26701-.34737.61343.07.49216.59302 1.9336.19011 3.2599-.9112.89493-.74313 1.4836-1.0281 2.1239-1.0281.62025 0 1.0956-.21813 1.5858-.72761 1.5767-1.639 2.2002-2.0525 1.8948-1.2568-.20383.53117.53139.51964.97534-.0153.18814-.22669.70873-.59048 1.1569-.80842 1.7977-.87424 2.0336-1.0524 2.1838-1.6488.11858-.47089.21288-.53467.39121-.26458.18424.27904.34803.21306.75866-.30559.28804-.3638.6475-.81029.79881-.99219.15131-.1819.54415-.33073.87298-.33073.44311 0 .68455-.2397.93274-.92604.18417-.50932.51116-.92604.72664-.92604.21548 0 .68943-.29766 1.0532-.66146.3638-.3638.88714-.66146 1.163-.66146.5674 0 1.0454-.57875.60055-.72705-.19163-.0639-.14004-.36124.15159-.87384.5083-.89343.85384-1.0268.65102-.25119-.15903.60812.55244.75411.90238.18516.11637-.1892.61014-.62229 1.0973-.96243.74972-.52348.86244-.73469.73422-1.3758-.12479-.62392-.0616-.75736.35863-.75736.84107 0 1.7118-.51489 2.2636-1.3385.28618-.42714.68286-.77697.88152-.77739.19865-.00052.76919-.44619 1.2679-.99061.68758-.75067.9598-.9039 1.1265-.63414.30156.48793 1.3455-.0713 1.3455-.72074 0-.37261.16423-.44993.76756-.36138.50572.0742.94237-.0542 1.28-.37656.61234-.5846 1.3284-1.0662 2.0644-1.3883.93272-.40828 1.2998-1.0187.90136-1.4988-.29941-.36077-.25886-.39235.31796-.24758.43973.11037.77618.0273 1.0046-.24794.18892-.22764.47851-.41388.64353-.41388.16502 0 .98375-.71438 1.8194-1.5875.86636-.90521 1.7469-1.5875 2.0488-1.5875.2912 0 .76757-.23813 1.0586-.52917s.58852-.52917.66105-.52917c.53048 0 6.5119-3.6323 7.1442-4.3384.43656-.48754 1.1862-1.0162 1.6658-1.1749 1.3941-.46117 10.635-6.596 12.159-8.0722.76398-.73998 1.3888-1.4685 1.3884-1.619-.000265-.15049-.60232-1.1666-1.3377-2.258-.73536-1.0914-1.638-2.5657-2.006-3.2763-.36792-.71055-1.1776-1.8416-1.7993-2.5135-1.0736-1.1603-3.5876-5.5668-3.5876-6.2883 0-.18628-.24999-.47248-.55554-.636-.40518-.21685-.52127-.47652-.42896-.95946.06962-.36418-.007-1.0159-.17017-1.4483-.26611-.70499-.22864-.83852.36281-1.2929.89593-.68834 1.231-.6461 1.6397.20669.19117.39886.65895.87443 1.0395 1.0568.38057.1824 1.1242.9574 1.6525 1.7222s2.1543 2.5037 3.6132 3.8643c1.4589 1.3606 2.8839 2.9272 3.1666 3.4813.28272.55417.61441 1.0483.7371 1.0981.12269.0498.86481.91165 1.6492 1.9152 1.2518 1.6017 1.4598 1.7666 1.7022 1.3494.15187-.2614.87144-1.1784 1.599-2.0378.7276-.85938 1.561-1.902 1.8521-2.317s.90473-.93675 1.3637-1.1596c.8178-.39702.84059-.39064 1.1339.31742.33466.80796-.12335 2.2959-.90687 2.9462-.23331.19363-.36093.51696-.28359.71851.16242.42325-1.0049 2.833-1.8069 3.7299-.46521.52029-.48781.64525-.15481.85584.21447.13563.6451.24842.95696.25065.39765.003.67551.27607.93024.91471.19977.50086.74102 1.1855 1.2028 1.5214.46176.33589 1.8219 1.423 3.0225 2.4158 2.4853 2.0551 3.1334 2.4365 4.6053 2.7104.57706.10738 1.1857.38797 1.3525.62353.16681.23557.83836.69554 1.4923 1.0222.65398.32661 1.338.77329 1.52.99262.18233.2197.54208.33178.80109.24957.29968-.0951.81315.15195 1.4162.68144.8029.70495.97128.76494 1.1127.39641.0917-.23883.0932-.50772.003-.59753-.0898-.0898.0711-.3275.35765-.52819.46418-.32512.74816-.24631 2.6058.72309 1.1467.59839 2.4891 1.1847 2.9831 1.3028.49403.11818 1.1066.30086 1.3613.40597.32933.13591.46302.067.46302-.23855 0-.36242.21427-.32106 1.3695.26434.75323.38168 1.8527.74949 2.4434.81734.59062.0678 1.1947.21741 1.3425.33233.14775.11493.59606.28718.99624.38278.6109.14594.7276.0881.7276-.36039 0-.29382.1318-.53421.2929-.53421.16701 0 .22017-.19899.12368-.46302-.0966-.26437.0899-.15652.43471.25139.65341.77295 2.3964 1.2654 2.7059.76456.26693-.4319 1.2053-.3474 1.2053.10853 0 .51263.90478.51263 1.4174 0 .54701-.54701 2.2762-.49787 3.6539.10383.63171.27591 2.0014 1.3559 3.0507 2.4055 1.0473 1.0476 2.0296 1.8273 2.1828 1.7326s.42236-.0833.5981.0253c.6387.39474 1.5326.34049 1.5326-.093 0-.37834.0458-.37965.46302-.0133.25466.22363.71521.48324 1.0234.57693.30823.0937.77317.40543 1.0332.69276.26003.28732.64007.52241.84452.52241.31472 0 2.0032 1.1263 3.1876 2.1263.18373.15513.45163.2094.59531.12059.14368-.0888.26287.11346.26486.44947.007 1.1478.30832 1.84.73088 1.6778.2202-.0845.62854.0529.90742.30524.39499.35747.55308.38442.7153.12194.30998-.50156 1.8761.89671 1.8761 1.675 0 .41711.14561.59698.46289.5718.3056-.0243.49457.1877.55611.62377.0873.61852 1.3356 1.9335 3.2493 3.4229.77766.60521.84762.61592 1.1673.17867.29029-.39699.31837-.29752.19169.67912-.0816.62934-.23341 1.3809-.3373 1.6702-.1039.28926-.0609.73096.0956.98155.20731.33196.19067.71525-.0613 1.4121-.19023.52607-.27471 1.0276-.18774 1.1146.23344.23345 3.0655-2.7975 3.0655-3.2808 0-.25854-.14852-.35615-.39688-.26085-.30597.11741-.39687-.0588-.39687-.76945 0-1.1253 1.3179-3.5503 2.445-4.4986.4465-.37571 1.2181-1.3599 1.7147-2.1871 1.2036-2.0049 2.1744-2.9999 2.7489-2.8176.31596.10028.91136-.32691 1.9338-1.3874.81247-.84279 1.5446-1.7407 1.6269-1.9954.0823-.25466.32262-.46302.53399-.46302.67257 0 2.4905-1.3114 2.4905-1.7965 0-.68882.79321-1.6999 1.2086-1.5405.2034.0781.60199-.20185.9166-.64368.68493-.96189.98637-.98316 1.3246-.0934.14606.38419.40622.62923.58876.55455.17988-.0736.53541-.2175.79007-.31979.70809-.28441.55239.21518-.33073 1.0613-.91103.87282-1.0235 1.4552-.28092 1.4552.39515 0 .50141.16698.46302.7276-.0505.73827-.0225.74764 1.2022.40114.31373-.0888.53926.0833.71494.54534.37339.9821 1.2568 1.3939 1.8462.86055.25401-.22988.66083-.41796.90403-.41796s.44219-.18115.44219-.40255c0-.6305 1.2464-1.0955 1.8784-.70077.44064.27518.60691.22458 1.1352-.34547.81121-.87532.97099-.84269.89002.18175-.0864 1.0935.70649 1.3618 1.1497.38901.30871-.67756 1.2427-1.2386 2.0618-1.2386.92677 0 1.7793 1.5565 1.0869 1.9844-.14552.0899-.26458.33509-.26458.54479 0 .60038 1.1648.45132 1.806-.23111.65587-.69816.73451-1.3074.22349-1.7315-.83585-.6937.71051-3.7416 1.8983-3.7416.21142 0 .78912.41672 1.2838.92604.87445.90037 1.4031 1.1632 1.4031.69744 0-.33606 2.0965-1.7318 2.2982-1.5301.0946.0946.0172.46144-.17224.81521-.18934.35377-.26673.84519-.17201 1.092.0947.24687.0241.85858-.157 1.3594-.24035.66464-.52742.95015-1.0631 1.0573-.78439.15687-1.0178 1.0138-.43498 1.5966.22215.22214.0259.70765-.76401 1.8906-1.1125 1.666-1.1499 1.9684-.21413 1.7336.64694-.16237 1.7168.63122 1.5418 1.1437-.13999.41003.51382.436.91355.0363.38381-.3838.90427-.0545.81058.51284-.0757.45868.34708.52282 1.1836.17957.28723-.11786.46302-.0711.46302.12325 0 .17228.34763.66088.77253 1.0858.42489.4249.84836 1.1178.94104 1.5397.28699 1.3066 1.3105 1.897 4.0411 2.3308.8045.12782 1.1272.45139.65019.65199-.34528.14521-1.3778 1.9696-1.3778 2.4345 0 .2648.21894.43179.56615.43179.54177 0 .82455.24704 1.6966 1.4822.35677.50536.31978.73497-.40497 2.5136-.86019 2.1109-.94377 2.5265-.53552 2.6629.1691.0565.12269.89133-.12917 2.3235-.29043 1.6516-.31448 2.2838-.0921 2.4213.20254.12518.24355.67446.12538 1.6798-.15676 1.3339-.12559 1.4854.29123 1.4152.34129-.0575.49019.12601.55375.68238.11628 1.0177.88167 1.8211 1.5066 1.5814.3978-.15266.44601-.0957.27403.32371-.45919 1.1197-.63299 2.3456-.39547 2.7894.41822.78147.27916 1.5501-.45445 2.5119-.53999.70796-.62997.99279-.38957 1.2332.24037.24038.41783.23718.76829-.0139.8241-.59032 1.1487-.66233 1.4657-.32515.2414.25672.23608.36093-.0233.45591-.18497.0677-.51041.45978-.72318.87126-.3379.65343-.33854.86386-.005 1.6622.28263.67638.34041 1.5029.2222 3.178l-.15979 2.2639 1.2072-.0467c.66399-.0257 1.272.018 1.3511.0972.26549.26546-.61129 3.0229-1.0671 3.3562-.71496.52278-.18714.72345 1.1712.44526l1.25-.25601-.006.93275c-.006 1.0046.31869 1.6774.69734 1.4434.41614-.25718.25088.33292-.42368 1.5129-.36203.63332-.65968 1.3712-.66146 1.6398-.003.26859-.16957.80437-.37293 1.1906-.20338.38626-.51093 1.2381-.68349 1.8929-.17254.65484-.74772 2.0836-1.2782 3.175-.53044 1.0914-.93666 2.2041-.90268 2.4726.0805.63629-1.9784 2.7227-2.9199 2.959-.75014.18828-.8899.61231-.76901 2.3335.036.51216-.20288 1.045-.74536 1.6628-.43907.50006-.7983 1.0745-.7983 1.2766 0 .72648-1.319 1.9611-2.1855 2.0456-.83539.0815-.84179.0932-.76599 1.4051.0829 1.4347.59028 2.3812 2.393 4.4641.59819.69116 1.0876 1.3424 1.0876 1.4471s-.35719.32531-.79375.49009c-.96846.36555-1.0883 1.271-.19844 1.4991.69874.17912 1.8616 1.9454 2.332 3.5421.29408.99826.27749 1.1829-.14848 1.6536-.26377.29144-.63969.52989-.83543.52989-.20978 0-.35933.29867-.36427.72761-.005.40018-.18323.95872-.39688 1.2412-.55544.73434-.48157 1.1255.24709 1.3084.62871.15779 2.2749 2.308 2.2749 2.9715 0 .1854.31644.4924.70321.68225 1.3841.67938 1.5392 2.065.23114 2.065-1.0111 0-.87816 1.0186.27799 2.1309 1.0441 1.0045 1.3834 1.5345 1.7088 2.6689.20249.70602.17412.74649-.41899.59763-.34991-.0878-1.3013-.50474-2.1142-.92648-.81285-.42174-1.6367-.7668-1.8307-.7668-.43056 0-.67395.58111-.67395 1.6091 0 .42466-.11287.77211-.25085.77211-.13796 0-.99357-.6181-1.9014-1.3736-.96803-.80562-1.6939-1.2432-1.7556-1.0583-.16574.49715-.74753.37127-1.6002-.34623-.43236-.36381-1.0071-.66176-1.2771-.66213-.27004-.00027-1.3839-.59538-2.4753-1.3222-1.0914-.72686-2.2274-1.3219-2.5244-1.3222-.61069-8e-4-3.9844-2.0624-5.7721-3.5273-.65196-.53418-1.3846-.97125-1.6282-.97125-.55569 0-1.7464.91931-2.1706 1.6759l-.32136.57309-.009-.61271c-.005-.33699-.12876-.83578-.27468-1.1084-.17734-.33137-.17734-.55008 0-.65968.14592-.0902.2653-.43338.2653-.76267 0-.88333-.80162-3.1601-1.2355-3.5091-.25533-.20537-.31728-.53736-.19282-1.0332.1688-.67256.13295-.71715-.45092-.56091-.34887.0933-1.0735.17136-1.6104.17335-.75565.003-1.2522.24262-2.1989 1.0619-1.3732 1.1885-1.8376 1.2978-2.249.52917-.21196-.39605-.55399-.52917-1.3596-.52917-.90663 0-1.3304.21223-2.6866 1.3454-2.5386 2.1212-6.2012 3.8001-10.017 4.5916-.38602.0801-1.2538.68201-1.9284 1.3376-.67459.65563-1.341 1.192-1.481 1.192-.40693 0-.29343 1.06.13093 1.2228.27847.10686.0538.43481-.80984 1.1823-.65736.56894-1.3033 1.0344-1.4354 1.0344-.2639 0-.0604-.73201.35114-1.2632.42549-.54914.0443-.64705-1.1389-.29255-1.2176.36482-1.5045.74587-1.1024 1.4644.32019.57215-.42302 2.1708-1.2378 2.6625-.46541.28085-.54459.24958-.61732-.24386-.14949-1.0143-.73476-.81557-2.1411.72691-.76003.83357-2.0058 2.1137-2.7683 2.8448-1.033.99033-1.3158 1.4143-1.1093 1.6631.35615.42915-3.5251 3.815-4.3732 3.815-.60552 0-1.0403.29598-1.8389 1.2518-.3885.46498-.42675.67049-.18009.96769.25657.30915.14942.43138-.59295.67638-.49836.16448-1.1174.53257-1.3758.818-.45145.49885-.44757.53809.1003 1.0133.7478.64856.71922 1.1261-.11413 1.9075-.56068.52573-.6585.80848-.5423 1.5675.1356.88573.0371 1.0239-2.2618 3.175-1.322 1.2369-3.9787 3.7372-5.9038 5.5562-1.9251 1.819-4.2246 3.9026-5.11 4.6302-1.4295 1.1747-1.6114 1.4323-1.6237 2.2995-.008.53711.10856 1.0522.25819 1.1447.33622.20779-3.5384 2.2443-4.2699 2.2443-.37159 0-.68334.34709-1.0439 1.1622-.28276.63924-.69279 1.2308-.91116 1.3146-.54934.21081-.49636.7651.15189 1.5892.46578.59215.48827.72113.14846.85153-.22026.0845-.47537.49468-.56692.91146-.15255.69456-.22053.73314-.81489.46233-.56123-.25571-.74876-.19936-1.3942.41897-.45546.43635-.90888.6518-1.165.55352-.2306-.0885-.69647-.009-1.0353.1768-.3388.18573-.85827.3088-1.1544.27348-.29888-.0356-.82068.23626-1.1729.61119-.39398.41937-.8082.62026-1.0927.52995-.29022-.0921-.61202.0741-.87761.45329l-.41937.59873v-.72033c0-.39618-.0372-.72033-.0826-.72033s-.5812.2409-1.1906.53534c-1.2883.62243-1.4359 1.285-.45766 2.0545.3577.28136.79249.8235.96619 1.2047.37191.81625 1.2568 1.1872 1.5874.6655.15927-.25135.22872-.1418.23155.36524.003.54627.24791.87924.99624 1.3548.5457.34675 1.2303.89669 1.5214 1.2221.29105.3254.94589.80525 1.4552 1.0663.50933.26108 1.3889.84372 1.9546 1.2948.56572.45103 1.2503.82006 1.5214.82006.31286 0 .49278.18914.49278.51803 0 .28491.45782.99928 1.0174 1.5875 1.0009 1.0522 1.6285 1.3518 1.6285.77748 0-.34119 1.5026.93384 2.6775 2.2721.44927.51169.77476.92569.7233.91999-.0514-.006-.49676-.18538-.98957-.39929zm-33.27-42.784c1.4812-2.2419 3.9489-6.6345 6.0873-10.836 1.978-3.886 4.6351-8.8271 5.9046-10.98 4.7294-8.0208 6.6024-11.402 7.8854-14.234 3.4542-7.626 9.746-19.895 13.229-25.796 1.8197-3.0829 7.4124-13.66 8.4908-16.058.39078-.86898.75286-2.2556.83346-3.1918.1343-1.5599.0893-1.7353-.77993-3.0427-4.1092-6.1805-13.556-16.844-27.485-31.023-4.8615-4.949-10.672-10.936-12.913-13.304-2.2408-2.3683-4.1669-4.2723-4.2804-4.231-.11347.0413-3.4593 3.5334-7.4353 7.7601-3.9759 4.2268-9.7293 10.336-12.785 13.575-3.0559 3.2397-7.6244 8.1753-10.152 10.968-2.5277 2.7928-5.9895 6.5661-7.693 8.3851-6.6544 7.1058-7.4226 8.1149-7.4226 9.7499 0 1.2401 5.323 12.416 11.092 23.288 1.2843 2.4204 3.7581 7.2582 5.4972 10.751 1.7391 3.4925 3.6184 7.0583 4.1761 7.924.55771.86568 2.8897 5.3901 5.1822 10.054 2.9871 6.0773 5.2714 10.279 8.0615 14.83 2.1413 3.4925 5.266 8.7312 6.9438 11.642 3.3572 5.8238 4.4561 7.5406 4.8265 7.5406.13507 0 1.3665-1.6966 2.7366-3.7703zm-48.186.52916c.17961-.4884-.05818-.99218-.46832-.99218-.53888 0-.74264.50166-.38082.93763.39226.47263.6884.49166.84914.0546zm-1.4365-1.3229c.08891-.77268-.17263-.92974-.68876-.41361-.24227.24227-.45467.18183-.92986-.26458-.33873-.31822-.86806-.57858-1.1763-.57858-.32386 0-.62977-.21847-.72469-.51755-.17931-.56497-1.5988-1.8637-2.037-1.8637-.3801 0-.01561 1.3363.53262 1.9525.24332.27354.91866.80839 1.5007 1.1886 2.3774 1.5527 3.3855 1.6949 3.5233.49692zm167.48-20.393c.0461-.38895.19068-.7072.32141-.7072.35796 0 .80351-.96811.64077-1.3922-.11795-.30737-.35184-.31915-1.3426-.0676-1.8033.45789-2.1165 1.1845-1.0203 2.3673.78801.85028 1.2847.77926 1.4007-.20027zm-244.43-67.189c-.63635-1.7008-1.1791-2.2945-1.6588-1.8147-.2417.2417-.2374.41802.01876.7693.18278.25066.71171 1.0338 1.1754 1.7404 1.0219 1.5572 1.2049 1.2835.46467-.69493zm3.4397-4.6907c0-.42215-1.0605-1.3663-1.4056-1.2514-.4603.15325-.55609 1.0192-.14179 1.2818.49303.31245 1.5474.29174 1.5474-.0304zm138.91 132.29c0-.14552.11906-.26459.26458-.26459s.26458.11907.26458.26459-.11906.26458-.26458.26458-.26458-.11906-.26458-.26458zm-40.867-5.0088c-.27032-.43739.29241-.54201.80962-.15052.4855.3675.48294.38026-.0777.3884-.31883.005-.6482-.10242-.73192-.23788zm44.58-4.1855c.005-.10914.17953-.4961.3875-.8599l.37812-.66146.009.8599c.006.59213-.11421.85989-.3875.85989-.21828 0-.39266-.0893-.3875-.19843zm15.146-12.122c.20457-.39044.77753-.85749 1.2732-1.0379.49572-.18042 1.1394-.42594 1.4305-.5456.47112-.19369.48933-.16859.16604.22885-.19972.24553-.51256.44642-.69521.44642-.18264 0-.48682.18644-.67594.41432-.18912.22787-.68736.59195-1.1072.80906l-.76335.39474zm-117.82-35.707c-.18408-.2218-.28344-.45451-.22082-.51713.06263-.0626.2592.11884.43682.40327.38412.61508.25602.68261-.216.11386zm-21.514-86.556c-.09701-.097-.17639-.29942-.17639-.44979 0-.16579.12324-.15017.31309.0397.1722.1722.25158.37461.17639.44979-.07519.0752-.21608.0573-.31309-.0397zm162.86-16.345c.0999-.11105.0663-.50505-.0746-.87555-.22389-.58889-.20512-.63133.14918-.33728.49061.40717.52461.96544.0746 1.2244-.1819.10468-.24904.0995-.14919-.0116zm-39.472-11.789c-.23846-.15411-.2711-.2581-.0818-.26053.17331-.002.3887.11501.47864.26053.20301.32849.11142.32849-.39688 0zm-29.083-25.29c.0127-.30822.07539-.37091.15985-.15985.07643.191.06703.4192-.02088.50712-.08792.0879-.15045-.0683-.13896-.34727z" filter="url(#a)" stroke-width=".26458"/>
  </g>
</svg>
